<?xml version="1.0" ?><!DOCTYPE svg  PUBLIC '-//W3C//DTD SVG 1.1//EN'  'http://www.w3.org/Graphics/SVG/1.1/DTD/svg11.dtd'><svg height="6.82666in" style="shape-rendering:geometricPrecision; text-rendering:geometricPrecision; image-rendering:optimizeQuality; fill-rule:evenodd; clip-rule:evenodd" viewBox="0 0 6.82666 6.82666" width="6.82666in" xml:space="preserve" xmlns="http://www.w3.org/2000/svg" xmlns:xlink="http://www.w3.org/1999/xlink"><defs><style type="text/css">
   <![CDATA[
    .fil1 {fill:none}
    .fil0 {fill:#0A93E2;fill-rule:nonzero}
   ]]>
  </style></defs><g id="Layer_x0020_1"><path class="fil0" d="M5.76 3.62583c0.117358,0 0.2125,-0.0951417 0.2125,-0.2125 0,-0.117358 -0.0951417,-0.2125 -0.2125,-0.2125l-4.69333 -3.93701e-006c-0.117358,0 -0.2125,0.0951417 -0.2125,0.2125 0,0.117358 0.0951417,0.2125 0.2125,0.2125l4.69333 3.93701e-006z"/><path class="fil0" d="M3.62583 1.06666c0,-0.117358 -0.0951417,-0.2125 -0.2125,-0.2125 -0.117358,0 -0.2125,0.0951417 -0.2125,0.2125l3.93701e-006 4.69333c0,0.117358 0.0951417,0.2125 0.2125,0.2125 0.117358,0 0.2125,-0.0951417 0.2125,-0.2125l-3.93701e-006 -4.69333z"/></g><rect class="fil1" height="6.82666" width="6.82666"/></svg>